G04*
G04 #@! TF.GenerationSoftware,Altium Limited,Altium Designer,19.0.15 (446)*
G04*
G04 Layer_Physical_Order=2*
G04 Layer_Color=16711680*
%FSLAX42Y42*%
%MOMM*%
G71*
G01*
G75*
%ADD41C,0.40*%
%ADD42C,0.50*%
%ADD43C,1.00*%
%ADD44R,1.50X1.50*%
%ADD45C,1.50*%
%ADD46R,1.50X1.50*%
%ADD47C,1.56*%
%ADD48R,1.56X1.56*%
%ADD49C,1.78*%
%ADD50C,1.00*%
%ADD51C,1.27*%
G36*
X7500Y0D02*
X0D01*
Y8000D01*
X7500D01*
Y0D01*
D02*
G37*
%LPC*%
G36*
X6198Y7785D02*
X6161Y7781D01*
X6128Y7767D01*
X6099Y7744D01*
X6078Y7717D01*
X6071Y7716D01*
X6063Y7717D01*
X6043Y7744D01*
X6014Y7767D01*
X5980Y7781D01*
X5944Y7785D01*
X5907Y7781D01*
X5874Y7767D01*
X5845Y7744D01*
X5824Y7717D01*
X5817Y7716D01*
X5809Y7717D01*
X5789Y7744D01*
X5760Y7767D01*
X5726Y7781D01*
X5690Y7785D01*
X5653Y7781D01*
X5620Y7767D01*
X5591Y7744D01*
X5570Y7717D01*
X5563Y7716D01*
X5555Y7717D01*
X5535Y7744D01*
X5506Y7767D01*
X5472Y7781D01*
X5436Y7785D01*
X5399Y7781D01*
X5366Y7767D01*
X5337Y7744D01*
X5316Y7717D01*
X5309Y7716D01*
X5301Y7717D01*
X5281Y7744D01*
X5252Y7767D01*
X5218Y7781D01*
X5182Y7785D01*
X5145Y7781D01*
X5112Y7767D01*
X5083Y7744D01*
X5062Y7717D01*
X5055Y7716D01*
X5047Y7717D01*
X5027Y7744D01*
X4998Y7767D01*
X4964Y7781D01*
X4928Y7785D01*
X4891Y7781D01*
X4858Y7767D01*
X4829Y7744D01*
X4808Y7717D01*
X4801Y7716D01*
X4793Y7717D01*
X4773Y7744D01*
X4744Y7767D01*
X4710Y7781D01*
X4674Y7785D01*
X4637Y7781D01*
X4604Y7767D01*
X4575Y7744D01*
X4554Y7717D01*
X4547Y7716D01*
X4539Y7717D01*
X4519Y7744D01*
X4490Y7767D01*
X4456Y7781D01*
X4420Y7785D01*
X4383Y7781D01*
X4350Y7767D01*
X4321Y7744D01*
X4298Y7715D01*
X4286Y7686D01*
X4273Y7686D01*
X4265Y7703D01*
X4247Y7727D01*
X4223Y7745D01*
X4195Y7757D01*
X4178Y7759D01*
Y7645D01*
Y7532D01*
X4195Y7534D01*
X4223Y7546D01*
X4247Y7564D01*
X4265Y7588D01*
X4273Y7605D01*
X4286Y7605D01*
X4298Y7575D01*
X4319Y7549D01*
Y7395D01*
X4225Y7302D01*
X2591D01*
X2565Y7298D01*
X2540Y7288D01*
X2519Y7272D01*
X2342Y7094D01*
X2326Y7074D01*
X2316Y7049D01*
X2312Y7023D01*
Y5401D01*
X2168Y5257D01*
X1791D01*
X1765Y5254D01*
X1740Y5244D01*
X1719Y5228D01*
X1580Y5088D01*
X1564Y5067D01*
X1554Y5043D01*
X1550Y5017D01*
Y4639D01*
X1495Y4584D01*
X1044D01*
X1020Y4594D01*
X991Y4598D01*
X961Y4594D01*
X933Y4582D01*
X910Y4564D01*
X891Y4540D01*
X880Y4513D01*
X876Y4483D01*
X880Y4453D01*
X891Y4426D01*
X910Y4402D01*
X933Y4384D01*
X961Y4373D01*
X991Y4369D01*
X1020Y4373D01*
X1044Y4382D01*
X1537D01*
X1563Y4386D01*
X1587Y4396D01*
X1608Y4412D01*
X1722Y4526D01*
X1738Y4547D01*
X1748Y4571D01*
X1752Y4597D01*
Y4975D01*
X1832Y5055D01*
X2169D01*
X2193Y5046D01*
X2223Y5042D01*
X2252Y5046D01*
X2280Y5057D01*
X2303Y5075D01*
X2322Y5099D01*
X2333Y5127D01*
X2335Y5138D01*
X2484Y5288D01*
X2500Y5309D01*
X2510Y5333D01*
X2514Y5359D01*
Y6981D01*
X2633Y7100D01*
X4267D01*
X4293Y7103D01*
X4318Y7114D01*
X4339Y7130D01*
X4491Y7282D01*
X4507Y7303D01*
X4517Y7327D01*
X4520Y7353D01*
Y7549D01*
X4539Y7573D01*
X4547Y7574D01*
X4554Y7573D01*
X4575Y7546D01*
X4604Y7524D01*
X4637Y7510D01*
X4674Y7505D01*
X4710Y7510D01*
X4744Y7524D01*
X4773Y7546D01*
X4793Y7573D01*
X4801Y7574D01*
X4808Y7573D01*
X4829Y7546D01*
X4858Y7524D01*
X4891Y7510D01*
X4928Y7505D01*
X4964Y7510D01*
X4998Y7524D01*
X5027Y7546D01*
X5047Y7573D01*
X5055Y7574D01*
X5062Y7573D01*
X5083Y7546D01*
X5112Y7524D01*
X5145Y7510D01*
X5182Y7505D01*
X5218Y7510D01*
X5252Y7524D01*
X5281Y7546D01*
X5301Y7573D01*
X5309Y7574D01*
X5316Y7573D01*
X5337Y7546D01*
X5366Y7524D01*
X5399Y7510D01*
X5436Y7505D01*
X5472Y7510D01*
X5506Y7524D01*
X5535Y7546D01*
X5555Y7573D01*
X5563Y7574D01*
X5570Y7573D01*
X5591Y7546D01*
X5620Y7524D01*
X5653Y7510D01*
X5690Y7505D01*
X5726Y7510D01*
X5760Y7524D01*
X5789Y7546D01*
X5809Y7573D01*
X5817Y7574D01*
X5824Y7573D01*
X5845Y7546D01*
X5874Y7524D01*
X5907Y7510D01*
X5944Y7505D01*
X5980Y7510D01*
X6014Y7524D01*
X6043Y7546D01*
X6063Y7573D01*
X6071Y7574D01*
X6078Y7573D01*
X6099Y7546D01*
X6128Y7524D01*
X6161Y7510D01*
X6198Y7505D01*
X6234Y7510D01*
X6268Y7524D01*
X6297Y7546D01*
X6319Y7575D01*
X6333Y7609D01*
X6338Y7645D01*
X6333Y7682D01*
X6319Y7715D01*
X6297Y7744D01*
X6268Y7767D01*
X6234Y7781D01*
X6198Y7785D01*
D02*
G37*
G36*
X4153Y7759D02*
X4136Y7757D01*
X4108Y7745D01*
X4084Y7727D01*
X4066Y7703D01*
X4054Y7675D01*
X4052Y7658D01*
X4153D01*
Y7759D01*
D02*
G37*
G36*
X1778Y7666D02*
X1745Y7662D01*
X1715Y7649D01*
X1689Y7629D01*
X1669Y7603D01*
X1662Y7586D01*
X1649Y7588D01*
Y7665D01*
X1399D01*
Y7415D01*
X1649D01*
Y7491D01*
X1662Y7494D01*
X1669Y7477D01*
X1689Y7451D01*
X1715Y7431D01*
X1745Y7418D01*
X1778Y7414D01*
X1811Y7418D01*
X1841Y7431D01*
X1867Y7451D01*
X1887Y7477D01*
X1900Y7507D01*
X1904Y7540D01*
X1900Y7572D01*
X1887Y7603D01*
X1867Y7629D01*
X1841Y7649D01*
X1811Y7662D01*
X1778Y7666D01*
D02*
G37*
G36*
X888Y7640D02*
X800D01*
Y7553D01*
X888D01*
Y7640D01*
D02*
G37*
G36*
X775D02*
X687D01*
Y7553D01*
X775D01*
Y7640D01*
D02*
G37*
G36*
X4153Y7633D02*
X4052D01*
X4054Y7616D01*
X4066Y7588D01*
X4084Y7564D01*
X4108Y7546D01*
X4136Y7534D01*
X4153Y7532D01*
Y7633D01*
D02*
G37*
G36*
X888Y7527D02*
X800D01*
Y7439D01*
X888D01*
Y7527D01*
D02*
G37*
G36*
X775D02*
X687D01*
Y7439D01*
X775D01*
Y7527D01*
D02*
G37*
G36*
X533Y7666D02*
X501Y7662D01*
X470Y7649D01*
X444Y7629D01*
X424Y7603D01*
X412Y7572D01*
X407Y7540D01*
X412Y7507D01*
X424Y7477D01*
X444Y7451D01*
X470Y7431D01*
X501Y7418D01*
X533Y7414D01*
X566Y7418D01*
X596Y7431D01*
X623Y7451D01*
X643Y7477D01*
X655Y7507D01*
X659Y7540D01*
X655Y7572D01*
X643Y7603D01*
X623Y7629D01*
X596Y7649D01*
X566Y7662D01*
X533Y7666D01*
D02*
G37*
G36*
X1892Y6400D02*
X1232D01*
X1206Y6397D01*
X1181Y6387D01*
X1161Y6371D01*
X1145Y6350D01*
X1134Y6325D01*
X1131Y6299D01*
X1134Y6273D01*
X1145Y6249D01*
X1161Y6228D01*
X1181Y6212D01*
X1206Y6202D01*
X1232Y6198D01*
X1851D01*
X1888Y6161D01*
Y6038D01*
X1891Y6012D01*
X1901Y5987D01*
X1917Y5966D01*
X1923Y5961D01*
X1943Y5945D01*
X1968Y5935D01*
X1994Y5932D01*
X2020Y5935D01*
X2044Y5945D01*
X2065Y5961D01*
X2081Y5982D01*
X2091Y6006D01*
X2095Y6033D01*
X2091Y6059D01*
X2090Y6063D01*
Y6203D01*
X2086Y6229D01*
X2076Y6253D01*
X2060Y6274D01*
X1964Y6371D01*
X1943Y6387D01*
X1918Y6397D01*
X1892Y6400D01*
D02*
G37*
G36*
X1394Y5409D02*
Y5334D01*
X1470D01*
X1468Y5345D01*
X1459Y5366D01*
X1445Y5385D01*
X1427Y5399D01*
X1405Y5408D01*
X1394Y5409D01*
D02*
G37*
G36*
X1369D02*
X1359Y5408D01*
X1337Y5399D01*
X1318Y5385D01*
X1304Y5366D01*
X1295Y5345D01*
X1294Y5334D01*
X1369D01*
Y5409D01*
D02*
G37*
G36*
X1470Y5309D02*
X1394D01*
Y5233D01*
X1405Y5235D01*
X1427Y5244D01*
X1445Y5258D01*
X1459Y5276D01*
X1468Y5298D01*
X1470Y5309D01*
D02*
G37*
G36*
X1369D02*
X1294D01*
X1295Y5298D01*
X1304Y5276D01*
X1318Y5258D01*
X1337Y5244D01*
X1359Y5235D01*
X1369Y5233D01*
Y5309D01*
D02*
G37*
G36*
X1968Y4990D02*
Y4915D01*
X2044D01*
X2042Y4925D01*
X2033Y4947D01*
X2019Y4966D01*
X2001Y4980D01*
X1979Y4989D01*
X1968Y4990D01*
D02*
G37*
G36*
X1943D02*
X1933Y4989D01*
X1911Y4980D01*
X1892Y4966D01*
X1878Y4947D01*
X1869Y4925D01*
X1868Y4915D01*
X1943D01*
Y4990D01*
D02*
G37*
G36*
X2044Y4890D02*
X1968D01*
Y4814D01*
X1979Y4816D01*
X2001Y4825D01*
X2019Y4839D01*
X2033Y4857D01*
X2042Y4879D01*
X2044Y4890D01*
D02*
G37*
G36*
X1943D02*
X1868D01*
X1869Y4879D01*
X1878Y4857D01*
X1892Y4839D01*
X1911Y4825D01*
X1933Y4816D01*
X1943Y4814D01*
Y4890D01*
D02*
G37*
G36*
X2896Y7023D02*
X2859Y7019D01*
X2826Y7005D01*
X2797Y6982D01*
X2774Y6953D01*
X2760Y6920D01*
X2756Y6883D01*
X2760Y6847D01*
X2774Y6813D01*
X2797Y6784D01*
X2824Y6764D01*
X2825Y6756D01*
X2824Y6749D01*
X2797Y6728D01*
X2774Y6699D01*
X2760Y6666D01*
X2756Y6629D01*
X2760Y6593D01*
X2774Y6559D01*
X2797Y6530D01*
X2824Y6510D01*
X2825Y6502D01*
X2824Y6495D01*
X2797Y6474D01*
X2774Y6445D01*
X2760Y6412D01*
X2756Y6375D01*
X2760Y6339D01*
X2774Y6305D01*
X2797Y6276D01*
X2824Y6256D01*
X2825Y6248D01*
X2824Y6241D01*
X2797Y6220D01*
X2774Y6191D01*
X2760Y6158D01*
X2756Y6121D01*
X2760Y6085D01*
X2774Y6051D01*
X2797Y6022D01*
X2824Y6002D01*
X2825Y5994D01*
X2824Y5987D01*
X2797Y5966D01*
X2774Y5937D01*
X2760Y5904D01*
X2756Y5867D01*
X2760Y5831D01*
X2774Y5797D01*
X2797Y5768D01*
X2824Y5748D01*
X2825Y5740D01*
X2824Y5733D01*
X2797Y5712D01*
X2774Y5683D01*
X2760Y5650D01*
X2756Y5613D01*
X2760Y5577D01*
X2774Y5543D01*
X2797Y5514D01*
X2826Y5492D01*
X2859Y5478D01*
X2896Y5473D01*
X2932Y5478D01*
X2966Y5492D01*
X2995Y5514D01*
X3017Y5543D01*
X3031Y5577D01*
X3036Y5613D01*
X3031Y5650D01*
X3017Y5683D01*
X2995Y5712D01*
X2968Y5733D01*
X2967Y5740D01*
X2968Y5748D01*
X2995Y5768D01*
X3017Y5797D01*
X3031Y5831D01*
X3036Y5867D01*
X3031Y5904D01*
X3017Y5937D01*
X2995Y5966D01*
X2968Y5987D01*
X2967Y5994D01*
X2968Y6002D01*
X2995Y6022D01*
X3017Y6051D01*
X3146D01*
X3244Y5952D01*
Y4436D01*
X3108Y4300D01*
X2832D01*
X2824Y4310D01*
X2800Y4328D01*
X2773Y4340D01*
X2743Y4344D01*
X2714Y4340D01*
X2686Y4328D01*
X2662Y4310D01*
X2644Y4286D01*
X2633Y4259D01*
X2629Y4229D01*
X2633Y4199D01*
X2644Y4172D01*
X2662Y4148D01*
X2673Y4140D01*
Y3865D01*
X2625Y3817D01*
X2119D01*
Y3872D01*
X1869D01*
Y3622D01*
X1923D01*
Y1833D01*
X1911Y1829D01*
X1897Y1846D01*
X1873Y1864D01*
X1846Y1876D01*
X1816Y1880D01*
X1786Y1876D01*
X1763Y1866D01*
X1133D01*
X1109Y1876D01*
X1080Y1880D01*
X1050Y1876D01*
X1022Y1864D01*
X999Y1846D01*
X980Y1823D01*
X969Y1795D01*
X965Y1765D01*
X969Y1736D01*
X980Y1708D01*
X999Y1684D01*
X1022Y1666D01*
X1050Y1655D01*
X1080Y1651D01*
X1109Y1655D01*
X1133Y1664D01*
X1763D01*
X1786Y1655D01*
X1816Y1651D01*
X1846Y1655D01*
X1873Y1666D01*
X1897Y1684D01*
X1911Y1702D01*
X1923Y1698D01*
Y572D01*
X1926Y553D01*
X1933Y536D01*
X1944Y522D01*
X2122Y344D01*
X2136Y333D01*
X2153Y326D01*
X2172Y323D01*
X2277D01*
Y266D01*
X2533D01*
Y330D01*
X2546Y333D01*
X2548Y329D01*
X2568Y302D01*
X2595Y282D01*
X2626Y269D01*
X2659Y265D01*
X2693Y269D01*
X2724Y282D01*
X2751Y302D01*
X2771Y329D01*
X2780Y349D01*
X2793D01*
X2802Y329D01*
X2822Y302D01*
X2849Y282D01*
X2880Y269D01*
X2914Y265D01*
X2947Y269D01*
X2978Y282D01*
X3005Y302D01*
X3025Y329D01*
X3034Y349D01*
X3047D01*
X3056Y329D01*
X3076Y302D01*
X3103Y282D01*
X3134Y269D01*
X3167Y265D01*
X3201Y269D01*
X3232Y282D01*
X3259Y302D01*
X3279Y329D01*
X3288Y349D01*
X3301D01*
X3310Y329D01*
X3330Y302D01*
X3357Y282D01*
X3388Y269D01*
X3422Y265D01*
X3455Y269D01*
X3486Y282D01*
X3513Y302D01*
X3533Y329D01*
X3542Y349D01*
X3555D01*
X3564Y329D01*
X3584Y302D01*
X3611Y282D01*
X3642Y269D01*
X3676Y265D01*
X3709Y269D01*
X3740Y282D01*
X3767Y302D01*
X3787Y329D01*
X3796Y349D01*
X3809D01*
X3818Y329D01*
X3838Y302D01*
X3865Y282D01*
X3896Y269D01*
X3929Y265D01*
X3963Y269D01*
X3994Y282D01*
X4021Y302D01*
X4041Y329D01*
X4050Y349D01*
X4063D01*
X4072Y329D01*
X4092Y302D01*
X4119Y282D01*
X4150Y269D01*
X4183Y265D01*
X4217Y269D01*
X4248Y282D01*
X4275Y302D01*
X4295Y329D01*
X4304Y349D01*
X4317D01*
X4326Y329D01*
X4346Y302D01*
X4373Y282D01*
X4404Y269D01*
X4438Y265D01*
X4471Y269D01*
X4502Y282D01*
X4529Y302D01*
X4549Y329D01*
X4558Y349D01*
X4571D01*
X4580Y329D01*
X4600Y302D01*
X4627Y282D01*
X4658Y269D01*
X4692Y265D01*
X4725Y269D01*
X4756Y282D01*
X4783Y302D01*
X4803Y329D01*
X4812Y349D01*
X4825D01*
X4834Y329D01*
X4854Y302D01*
X4881Y282D01*
X4912Y269D01*
X4946Y265D01*
X4979Y269D01*
X5010Y282D01*
X5037Y302D01*
X5057Y329D01*
X5066Y349D01*
X5079D01*
X5088Y329D01*
X5108Y302D01*
X5135Y282D01*
X5166Y269D01*
X5199Y265D01*
X5233Y269D01*
X5264Y282D01*
X5291Y302D01*
X5311Y329D01*
X5320Y349D01*
X5333D01*
X5342Y329D01*
X5362Y302D01*
X5389Y282D01*
X5420Y269D01*
X5453Y265D01*
X5487Y269D01*
X5518Y282D01*
X5545Y302D01*
X5565Y329D01*
X5574Y349D01*
X5587D01*
X5596Y329D01*
X5616Y302D01*
X5643Y282D01*
X5674Y269D01*
X5708Y265D01*
X5741Y269D01*
X5772Y282D01*
X5799Y302D01*
X5819Y329D01*
X5828Y349D01*
X5841D01*
X5850Y329D01*
X5870Y302D01*
X5897Y282D01*
X5928Y269D01*
X5962Y265D01*
X5995Y269D01*
X6026Y282D01*
X6053Y302D01*
X6073Y329D01*
X6082Y349D01*
X6095D01*
X6104Y329D01*
X6124Y302D01*
X6151Y282D01*
X6182Y269D01*
X6215Y265D01*
X6249Y269D01*
X6280Y282D01*
X6307Y302D01*
X6327Y329D01*
X6336Y349D01*
X6349D01*
X6358Y329D01*
X6378Y302D01*
X6405Y282D01*
X6436Y269D01*
X6469Y265D01*
X6503Y269D01*
X6534Y282D01*
X6561Y302D01*
X6581Y329D01*
X6590Y349D01*
X6603D01*
X6612Y329D01*
X6632Y302D01*
X6659Y282D01*
X6690Y269D01*
X6724Y265D01*
X6757Y269D01*
X6788Y282D01*
X6815Y302D01*
X6835Y329D01*
X6844Y349D01*
X6857D01*
X6866Y329D01*
X6886Y302D01*
X6913Y282D01*
X6944Y269D01*
X6978Y265D01*
X7011Y269D01*
X7042Y282D01*
X7069Y302D01*
X7089Y329D01*
X7102Y360D01*
X7107Y394D01*
X7102Y427D01*
X7089Y458D01*
X7069Y485D01*
X7042Y506D01*
X7011Y518D01*
X6978Y523D01*
X6944Y518D01*
X6913Y506D01*
X6886Y485D01*
X6866Y458D01*
X6857Y438D01*
X6844D01*
X6835Y458D01*
X6815Y485D01*
X6788Y506D01*
X6757Y518D01*
X6724Y523D01*
X6690Y518D01*
X6659Y506D01*
X6632Y485D01*
X6612Y458D01*
X6603Y438D01*
X6590D01*
X6581Y458D01*
X6561Y485D01*
X6534Y506D01*
X6503Y518D01*
X6469Y523D01*
X6436Y518D01*
X6405Y506D01*
X6378Y485D01*
X6358Y458D01*
X6349Y438D01*
X6336D01*
X6327Y458D01*
X6307Y485D01*
X6280Y506D01*
X6249Y518D01*
X6215Y523D01*
X6182Y518D01*
X6151Y506D01*
X6124Y485D01*
X6104Y458D01*
X6095Y438D01*
X6082D01*
X6073Y458D01*
X6053Y485D01*
X6026Y506D01*
X5995Y518D01*
X5962Y523D01*
X5928Y518D01*
X5897Y506D01*
X5870Y485D01*
X5850Y458D01*
X5841Y438D01*
X5828D01*
X5819Y458D01*
X5799Y485D01*
X5772Y506D01*
X5741Y518D01*
X5708Y523D01*
X5674Y518D01*
X5643Y506D01*
X5616Y485D01*
X5596Y458D01*
X5587Y438D01*
X5574D01*
X5565Y458D01*
X5545Y485D01*
X5518Y506D01*
X5487Y518D01*
X5453Y523D01*
X5420Y518D01*
X5389Y506D01*
X5362Y485D01*
X5342Y458D01*
X5333Y438D01*
X5320D01*
X5311Y458D01*
X5291Y485D01*
X5264Y506D01*
X5233Y518D01*
X5199Y523D01*
X5166Y518D01*
X5135Y506D01*
X5108Y485D01*
X5088Y458D01*
X5079Y438D01*
X5066D01*
X5057Y458D01*
X5037Y485D01*
X5016Y501D01*
Y2135D01*
X5122Y2241D01*
X7061D01*
X7079Y2243D01*
X7097Y2250D01*
X7111Y2261D01*
X7302Y2452D01*
X7313Y2467D01*
X7320Y2484D01*
X7322Y2502D01*
Y3797D01*
X7320Y3816D01*
X7313Y3833D01*
X7302Y3847D01*
X7251Y3898D01*
X7236Y3909D01*
X7219Y3916D01*
X7201Y3919D01*
X6007D01*
X5989Y3916D01*
X5972Y3909D01*
X5957Y3898D01*
X5894Y3835D01*
X5882Y3820D01*
X5875Y3803D01*
X5873Y3785D01*
Y3702D01*
X5845Y3680D01*
X5824Y3653D01*
X5817Y3652D01*
X5809Y3653D01*
X5789Y3680D01*
X5760Y3703D01*
X5726Y3717D01*
X5690Y3721D01*
X5653Y3717D01*
X5620Y3703D01*
X5591Y3680D01*
X5570Y3653D01*
X5563Y3652D01*
X5555Y3653D01*
X5535Y3680D01*
X5506Y3703D01*
X5472Y3717D01*
X5436Y3721D01*
X5399Y3717D01*
X5366Y3703D01*
X5337Y3680D01*
X5316Y3653D01*
X5309Y3652D01*
X5301Y3653D01*
X5281Y3680D01*
X5252Y3703D01*
X5218Y3717D01*
X5182Y3721D01*
X5145Y3717D01*
X5112Y3703D01*
X5083Y3680D01*
X5062Y3653D01*
X5055Y3652D01*
X5047Y3653D01*
X5027Y3680D01*
X4998Y3702D01*
Y3924D01*
X4996Y3943D01*
X4989Y3960D01*
X4978Y3974D01*
X4876Y4076D01*
X4861Y4087D01*
X4844Y4094D01*
X4826Y4097D01*
X3404D01*
X3396Y4107D01*
X3372Y4125D01*
X3344Y4136D01*
X3315Y4140D01*
X3285Y4136D01*
X3257Y4125D01*
X3234Y4107D01*
X3216Y4083D01*
X3204Y4056D01*
X3200Y4026D01*
X3204Y3996D01*
X3216Y3969D01*
X3234Y3945D01*
X3257Y3927D01*
X3285Y3915D01*
X3315Y3911D01*
X3344Y3915D01*
X3372Y3927D01*
X3396Y3945D01*
X3404Y3955D01*
X4797D01*
X4857Y3895D01*
Y3702D01*
X4829Y3680D01*
X4808Y3653D01*
X4801Y3652D01*
X4793Y3653D01*
X4773Y3680D01*
X4744Y3703D01*
X4710Y3717D01*
X4674Y3721D01*
X4637Y3717D01*
X4604Y3703D01*
X4575Y3680D01*
X4554Y3653D01*
X4547Y3652D01*
X4539Y3653D01*
X4519Y3680D01*
X4490Y3703D01*
X4456Y3717D01*
X4420Y3721D01*
X4383Y3717D01*
X4350Y3703D01*
X4321Y3680D01*
X4300Y3653D01*
X4293Y3652D01*
X4285Y3653D01*
X4265Y3680D01*
X4236Y3703D01*
X4202Y3717D01*
X4166Y3721D01*
X4129Y3717D01*
X4096Y3703D01*
X4067Y3680D01*
X4044Y3651D01*
X4030Y3618D01*
X4026Y3581D01*
X4030Y3545D01*
X4044Y3511D01*
X4067Y3482D01*
X4096Y3460D01*
X4129Y3446D01*
X4166Y3441D01*
X4202Y3446D01*
X4236Y3460D01*
X4265Y3482D01*
X4285Y3509D01*
X4293Y3510D01*
X4300Y3509D01*
X4321Y3482D01*
X4350Y3460D01*
X4383Y3446D01*
X4420Y3441D01*
X4456Y3446D01*
X4490Y3460D01*
X4519Y3482D01*
X4539Y3509D01*
X4547Y3510D01*
X4554Y3509D01*
X4575Y3482D01*
X4604Y3460D01*
X4637Y3446D01*
X4674Y3441D01*
X4710Y3446D01*
X4744Y3460D01*
X4773Y3482D01*
X4793Y3509D01*
X4801Y3510D01*
X4808Y3509D01*
X4829Y3482D01*
X4858Y3460D01*
X4891Y3446D01*
X4928Y3441D01*
X4964Y3446D01*
X4998Y3460D01*
X5027Y3482D01*
X5047Y3509D01*
X5055Y3510D01*
X5062Y3509D01*
X5083Y3482D01*
X5112Y3460D01*
X5145Y3446D01*
X5182Y3441D01*
X5218Y3446D01*
X5252Y3460D01*
X5281Y3482D01*
X5301Y3509D01*
X5309Y3510D01*
X5316Y3509D01*
X5337Y3482D01*
X5366Y3460D01*
X5399Y3446D01*
X5436Y3441D01*
X5472Y3446D01*
X5506Y3460D01*
X5535Y3482D01*
X5555Y3509D01*
X5563Y3510D01*
X5570Y3509D01*
X5591Y3482D01*
X5620Y3460D01*
X5653Y3446D01*
X5690Y3441D01*
X5726Y3446D01*
X5760Y3460D01*
X5789Y3482D01*
X5809Y3509D01*
X5817Y3510D01*
X5824Y3509D01*
X5845Y3482D01*
X5874Y3460D01*
X5907Y3446D01*
X5944Y3441D01*
X5980Y3446D01*
X6014Y3460D01*
X6043Y3482D01*
X6063Y3509D01*
X6071Y3510D01*
X6078Y3509D01*
X6099Y3482D01*
X6128Y3460D01*
X6161Y3446D01*
X6198Y3441D01*
X6234Y3446D01*
X6268Y3460D01*
X6297Y3482D01*
X6317Y3509D01*
X6325Y3510D01*
X6332Y3509D01*
X6353Y3482D01*
X6382Y3460D01*
X6415Y3446D01*
X6452Y3441D01*
X6488Y3446D01*
X6522Y3460D01*
X6551Y3482D01*
X6573Y3511D01*
X6587Y3545D01*
X6592Y3581D01*
X6587Y3618D01*
X6573Y3651D01*
X6551Y3680D01*
X6522Y3703D01*
X6488Y3717D01*
X6452Y3721D01*
X6415Y3717D01*
X6382Y3703D01*
X6353Y3680D01*
X6332Y3653D01*
X6325Y3652D01*
X6317Y3653D01*
X6297Y3680D01*
X6268Y3703D01*
X6234Y3717D01*
X6198Y3721D01*
X6161Y3717D01*
X6128Y3703D01*
X6099Y3680D01*
X6078Y3653D01*
X6071Y3652D01*
X6063Y3653D01*
X6043Y3680D01*
X6014Y3702D01*
Y3755D01*
X6036Y3777D01*
X7172D01*
X7181Y3768D01*
Y2531D01*
X7032Y2382D01*
X5093D01*
X5074Y2380D01*
X5057Y2373D01*
X5043Y2361D01*
X4896Y2214D01*
X4884Y2200D01*
X4877Y2182D01*
X4875Y2164D01*
Y501D01*
X4854Y485D01*
X4834Y458D01*
X4825Y438D01*
X4812D01*
X4803Y458D01*
X4783Y485D01*
X4756Y506D01*
X4725Y518D01*
X4692Y523D01*
X4658Y518D01*
X4627Y506D01*
X4600Y485D01*
X4580Y458D01*
X4571Y438D01*
X4558D01*
X4549Y458D01*
X4529Y485D01*
X4502Y506D01*
X4471Y518D01*
X4438Y523D01*
X4404Y518D01*
X4373Y506D01*
X4346Y485D01*
X4326Y458D01*
X4317Y438D01*
X4304D01*
X4295Y458D01*
X4275Y485D01*
X4248Y506D01*
X4217Y518D01*
X4183Y523D01*
X4150Y518D01*
X4119Y506D01*
X4092Y485D01*
X4072Y458D01*
X4063Y438D01*
X4050D01*
X4041Y458D01*
X4021Y485D01*
X3994Y506D01*
X3963Y518D01*
X3929Y523D01*
X3896Y518D01*
X3865Y506D01*
X3838Y485D01*
X3818Y458D01*
X3809Y438D01*
X3796D01*
X3787Y458D01*
X3767Y485D01*
X3740Y506D01*
X3709Y518D01*
X3676Y523D01*
X3642Y518D01*
X3611Y506D01*
X3584Y485D01*
X3564Y458D01*
X3555Y438D01*
X3542D01*
X3533Y458D01*
X3513Y485D01*
X3486Y506D01*
X3455Y518D01*
X3422Y523D01*
X3388Y518D01*
X3357Y506D01*
X3330Y485D01*
X3310Y458D01*
X3301Y438D01*
X3288D01*
X3279Y458D01*
X3259Y485D01*
X3232Y506D01*
X3201Y518D01*
X3167Y523D01*
X3134Y518D01*
X3103Y506D01*
X3076Y485D01*
X3056Y458D01*
X3047Y438D01*
X3034D01*
X3025Y458D01*
X3005Y485D01*
X2978Y506D01*
X2947Y518D01*
X2914Y523D01*
X2880Y518D01*
X2849Y506D01*
X2822Y485D01*
X2802Y458D01*
X2793Y438D01*
X2780D01*
X2771Y458D01*
X2751Y485D01*
X2724Y506D01*
X2693Y518D01*
X2659Y523D01*
X2626Y518D01*
X2595Y506D01*
X2568Y485D01*
X2548Y458D01*
X2546Y455D01*
X2533Y457D01*
Y522D01*
X2277D01*
Y464D01*
X2201D01*
X2065Y601D01*
Y3622D01*
X2119D01*
Y3676D01*
X2654D01*
X2673Y3678D01*
X2690Y3685D01*
X2704Y3697D01*
X2793Y3785D01*
X2804Y3800D01*
X2811Y3817D01*
X2814Y3835D01*
Y4140D01*
X2824Y4148D01*
X2832Y4158D01*
X3137D01*
X3155Y4161D01*
X3172Y4168D01*
X3187Y4179D01*
X3365Y4357D01*
X3376Y4372D01*
X3383Y4389D01*
X3385Y4407D01*
Y5982D01*
X3383Y6000D01*
X3376Y6017D01*
X3365Y6032D01*
X3225Y6171D01*
X3210Y6183D01*
X3193Y6190D01*
X3175Y6192D01*
X3017D01*
X2995Y6220D01*
X2968Y6241D01*
X2967Y6248D01*
X2968Y6256D01*
X2995Y6276D01*
X3017Y6305D01*
X3031Y6339D01*
X3036Y6375D01*
X3031Y6412D01*
X3017Y6445D01*
X2995Y6474D01*
X2968Y6495D01*
X2967Y6502D01*
X2968Y6510D01*
X2995Y6530D01*
X3017Y6559D01*
X3031Y6593D01*
X3036Y6629D01*
X3031Y6666D01*
X3017Y6699D01*
X2995Y6728D01*
X2968Y6749D01*
X2967Y6756D01*
X2968Y6764D01*
X2995Y6784D01*
X3017Y6813D01*
X3031Y6847D01*
X3036Y6883D01*
X3031Y6920D01*
X3017Y6953D01*
X2995Y6982D01*
X2966Y7005D01*
X2932Y7019D01*
X2896Y7023D01*
D02*
G37*
G36*
X1994Y4635D02*
X1961Y4630D01*
X1931Y4618D01*
X1905Y4598D01*
X1885Y4572D01*
X1872Y4541D01*
X1868Y4508D01*
X1872Y4476D01*
X1885Y4445D01*
X1905Y4419D01*
X1931Y4399D01*
X1958Y4388D01*
X1958Y4388D01*
Y4375D01*
X1958Y4375D01*
X1931Y4364D01*
X1905Y4344D01*
X1885Y4318D01*
X1872Y4287D01*
X1868Y4254D01*
X1872Y4222D01*
X1885Y4191D01*
X1905Y4165D01*
X1931Y4145D01*
X1961Y4133D01*
X1994Y4128D01*
X2027Y4133D01*
X2057Y4145D01*
X2083Y4165D01*
X2103Y4191D01*
X2116Y4222D01*
X2120Y4254D01*
X2116Y4287D01*
X2103Y4318D01*
X2083Y4344D01*
X2057Y4364D01*
X2030Y4375D01*
X2030Y4375D01*
Y4388D01*
X2030Y4388D01*
X2057Y4399D01*
X2083Y4419D01*
X2103Y4445D01*
X2116Y4476D01*
X2120Y4508D01*
X2116Y4541D01*
X2103Y4572D01*
X2083Y4598D01*
X2057Y4618D01*
X2027Y4630D01*
X1994Y4635D01*
D02*
G37*
G36*
X849Y4189D02*
Y4102D01*
X936D01*
X934Y4116D01*
X924Y4140D01*
X908Y4161D01*
X887Y4177D01*
X863Y4187D01*
X849Y4189D01*
D02*
G37*
G36*
X824D02*
X810Y4187D01*
X786Y4177D01*
X765Y4161D01*
X749Y4140D01*
X739Y4116D01*
X737Y4102D01*
X824D01*
Y4189D01*
D02*
G37*
G36*
X2007Y4100D02*
Y4013D01*
X2093D01*
X2092Y4027D01*
X2082Y4051D01*
X2066Y4072D01*
X2045Y4088D01*
X2020Y4098D01*
X2007Y4100D01*
D02*
G37*
G36*
X1981D02*
X1968Y4098D01*
X1943Y4088D01*
X1922Y4072D01*
X1906Y4051D01*
X1896Y4027D01*
X1894Y4013D01*
X1981D01*
Y4100D01*
D02*
G37*
G36*
X936Y4077D02*
X849D01*
Y3990D01*
X863Y3992D01*
X887Y4002D01*
X908Y4018D01*
X924Y4039D01*
X934Y4063D01*
X936Y4077D01*
D02*
G37*
G36*
X824D02*
X737D01*
X739Y4063D01*
X749Y4039D01*
X765Y4018D01*
X786Y4002D01*
X810Y3992D01*
X824Y3990D01*
Y4077D01*
D02*
G37*
G36*
X2093Y3988D02*
X2007D01*
Y3901D01*
X2020Y3903D01*
X2045Y3913D01*
X2066Y3929D01*
X2082Y3950D01*
X2092Y3974D01*
X2093Y3988D01*
D02*
G37*
G36*
X1981D02*
X1894D01*
X1896Y3974D01*
X1906Y3950D01*
X1922Y3929D01*
X1943Y3913D01*
X1968Y3903D01*
X1981Y3901D01*
Y3988D01*
D02*
G37*
G36*
X962Y3960D02*
X712D01*
Y3710D01*
X962D01*
Y3960D01*
D02*
G37*
G36*
X851Y3236D02*
Y3150D01*
X938D01*
X936Y3163D01*
X926Y3188D01*
X910Y3209D01*
X889Y3225D01*
X864Y3235D01*
X851Y3236D01*
D02*
G37*
G36*
X826D02*
X812Y3235D01*
X788Y3225D01*
X767Y3209D01*
X751Y3188D01*
X740Y3163D01*
X739Y3150D01*
X826D01*
Y3236D01*
D02*
G37*
G36*
X938Y3124D02*
X851D01*
Y3037D01*
X864Y3039D01*
X889Y3049D01*
X910Y3065D01*
X926Y3086D01*
X936Y3111D01*
X938Y3124D01*
D02*
G37*
G36*
X826D02*
X739D01*
X740Y3111D01*
X751Y3086D01*
X767Y3065D01*
X788Y3049D01*
X812Y3039D01*
X826Y3037D01*
Y3124D01*
D02*
G37*
G36*
X6978Y3063D02*
X6944Y3058D01*
X6913Y3046D01*
X6886Y3025D01*
X6866Y2998D01*
X6857Y2978D01*
X6844D01*
X6835Y2998D01*
X6815Y3025D01*
X6788Y3046D01*
X6757Y3058D01*
X6724Y3063D01*
X6690Y3058D01*
X6659Y3046D01*
X6632Y3025D01*
X6612Y2998D01*
X6603Y2978D01*
X6590D01*
X6581Y2998D01*
X6561Y3025D01*
X6534Y3046D01*
X6503Y3058D01*
X6469Y3063D01*
X6436Y3058D01*
X6405Y3046D01*
X6378Y3025D01*
X6358Y2998D01*
X6349Y2978D01*
X6336D01*
X6327Y2998D01*
X6307Y3025D01*
X6280Y3046D01*
X6249Y3058D01*
X6215Y3063D01*
X6182Y3058D01*
X6151Y3046D01*
X6124Y3025D01*
X6104Y2998D01*
X6095Y2978D01*
X6082D01*
X6073Y2998D01*
X6053Y3025D01*
X6026Y3046D01*
X5995Y3058D01*
X5962Y3063D01*
X5928Y3058D01*
X5897Y3046D01*
X5870Y3025D01*
X5850Y2998D01*
X5841Y2978D01*
X5828D01*
X5819Y2998D01*
X5799Y3025D01*
X5772Y3046D01*
X5741Y3058D01*
X5708Y3063D01*
X5674Y3058D01*
X5643Y3046D01*
X5616Y3025D01*
X5596Y2998D01*
X5587Y2978D01*
X5574D01*
X5565Y2998D01*
X5545Y3025D01*
X5518Y3046D01*
X5487Y3058D01*
X5453Y3063D01*
X5420Y3058D01*
X5389Y3046D01*
X5362Y3025D01*
X5342Y2998D01*
X5333Y2978D01*
X5320D01*
X5311Y2998D01*
X5291Y3025D01*
X5264Y3046D01*
X5233Y3058D01*
X5199Y3063D01*
X5166Y3058D01*
X5135Y3046D01*
X5108Y3025D01*
X5088Y2998D01*
X5079Y2978D01*
X5066D01*
X5057Y2998D01*
X5037Y3025D01*
X5010Y3046D01*
X4979Y3058D01*
X4946Y3063D01*
X4912Y3058D01*
X4881Y3046D01*
X4854Y3025D01*
X4834Y2998D01*
X4825Y2978D01*
X4812D01*
X4803Y2998D01*
X4783Y3025D01*
X4756Y3046D01*
X4725Y3058D01*
X4692Y3063D01*
X4658Y3058D01*
X4627Y3046D01*
X4600Y3025D01*
X4580Y2998D01*
X4571Y2978D01*
X4558D01*
X4549Y2998D01*
X4529Y3025D01*
X4502Y3046D01*
X4471Y3058D01*
X4438Y3063D01*
X4404Y3058D01*
X4373Y3046D01*
X4346Y3025D01*
X4326Y2998D01*
X4317Y2978D01*
X4304D01*
X4295Y2998D01*
X4275Y3025D01*
X4248Y3046D01*
X4217Y3058D01*
X4183Y3063D01*
X4150Y3058D01*
X4119Y3046D01*
X4092Y3025D01*
X4072Y2998D01*
X4063Y2978D01*
X4050D01*
X4041Y2998D01*
X4021Y3025D01*
X3994Y3046D01*
X3963Y3058D01*
X3929Y3063D01*
X3896Y3058D01*
X3865Y3046D01*
X3838Y3025D01*
X3818Y2998D01*
X3809Y2978D01*
X3796D01*
X3787Y2998D01*
X3767Y3025D01*
X3740Y3046D01*
X3709Y3058D01*
X3676Y3063D01*
X3642Y3058D01*
X3611Y3046D01*
X3584Y3025D01*
X3564Y2998D01*
X3555Y2978D01*
X3542D01*
X3533Y2998D01*
X3513Y3025D01*
X3486Y3046D01*
X3455Y3058D01*
X3422Y3063D01*
X3388Y3058D01*
X3357Y3046D01*
X3330Y3025D01*
X3310Y2998D01*
X3301Y2978D01*
X3288D01*
X3279Y2998D01*
X3259Y3025D01*
X3232Y3046D01*
X3201Y3058D01*
X3167Y3063D01*
X3134Y3058D01*
X3103Y3046D01*
X3076Y3025D01*
X3056Y2998D01*
X3047Y2978D01*
X3034D01*
X3025Y2998D01*
X3005Y3025D01*
X2978Y3046D01*
X2947Y3058D01*
X2914Y3063D01*
X2880Y3058D01*
X2849Y3046D01*
X2822Y3025D01*
X2802Y2998D01*
X2793Y2978D01*
X2780D01*
X2771Y2998D01*
X2751Y3025D01*
X2724Y3046D01*
X2693Y3058D01*
X2659Y3063D01*
X2626Y3058D01*
X2595Y3046D01*
X2568Y3025D01*
X2548Y2998D01*
X2535Y2967D01*
X2530Y2934D01*
X2535Y2900D01*
X2548Y2869D01*
X2568Y2842D01*
X2595Y2822D01*
X2626Y2809D01*
X2659Y2805D01*
X2693Y2809D01*
X2724Y2822D01*
X2751Y2842D01*
X2771Y2869D01*
X2780Y2889D01*
X2793D01*
X2802Y2869D01*
X2822Y2842D01*
X2849Y2822D01*
X2880Y2809D01*
X2914Y2805D01*
X2947Y2809D01*
X2978Y2822D01*
X3005Y2842D01*
X3025Y2869D01*
X3034Y2889D01*
X3047D01*
X3056Y2869D01*
X3076Y2842D01*
X3103Y2822D01*
X3134Y2809D01*
X3167Y2805D01*
X3201Y2809D01*
X3232Y2822D01*
X3259Y2842D01*
X3279Y2869D01*
X3288Y2889D01*
X3301D01*
X3310Y2869D01*
X3330Y2842D01*
X3357Y2822D01*
X3388Y2809D01*
X3422Y2805D01*
X3455Y2809D01*
X3486Y2822D01*
X3513Y2842D01*
X3533Y2869D01*
X3542Y2889D01*
X3555D01*
X3564Y2869D01*
X3584Y2842D01*
X3611Y2822D01*
X3642Y2809D01*
X3676Y2805D01*
X3709Y2809D01*
X3740Y2822D01*
X3767Y2842D01*
X3787Y2869D01*
X3796Y2889D01*
X3809D01*
X3818Y2869D01*
X3838Y2842D01*
X3865Y2822D01*
X3896Y2809D01*
X3929Y2805D01*
X3963Y2809D01*
X3994Y2822D01*
X4021Y2842D01*
X4041Y2869D01*
X4050Y2889D01*
X4063D01*
X4072Y2869D01*
X4092Y2842D01*
X4119Y2822D01*
X4150Y2809D01*
X4183Y2805D01*
X4217Y2809D01*
X4248Y2822D01*
X4275Y2842D01*
X4295Y2869D01*
X4304Y2889D01*
X4317D01*
X4326Y2869D01*
X4346Y2842D01*
X4373Y2822D01*
X4404Y2809D01*
X4438Y2805D01*
X4471Y2809D01*
X4502Y2822D01*
X4529Y2842D01*
X4549Y2869D01*
X4558Y2889D01*
X4571D01*
X4580Y2869D01*
X4600Y2842D01*
X4627Y2822D01*
X4658Y2809D01*
X4692Y2805D01*
X4725Y2809D01*
X4756Y2822D01*
X4783Y2842D01*
X4803Y2869D01*
X4812Y2889D01*
X4825D01*
X4834Y2869D01*
X4854Y2842D01*
X4881Y2822D01*
X4912Y2809D01*
X4946Y2805D01*
X4979Y2809D01*
X5010Y2822D01*
X5037Y2842D01*
X5057Y2869D01*
X5066Y2889D01*
X5079D01*
X5088Y2869D01*
X5108Y2842D01*
X5135Y2822D01*
X5166Y2809D01*
X5199Y2805D01*
X5233Y2809D01*
X5264Y2822D01*
X5291Y2842D01*
X5311Y2869D01*
X5320Y2889D01*
X5333D01*
X5342Y2869D01*
X5362Y2842D01*
X5389Y2822D01*
X5420Y2809D01*
X5453Y2805D01*
X5487Y2809D01*
X5518Y2822D01*
X5545Y2842D01*
X5565Y2869D01*
X5574Y2889D01*
X5587D01*
X5596Y2869D01*
X5616Y2842D01*
X5643Y2822D01*
X5674Y2809D01*
X5708Y2805D01*
X5741Y2809D01*
X5772Y2822D01*
X5799Y2842D01*
X5819Y2869D01*
X5828Y2889D01*
X5841D01*
X5850Y2869D01*
X5870Y2842D01*
X5897Y2822D01*
X5928Y2809D01*
X5962Y2805D01*
X5995Y2809D01*
X6026Y2822D01*
X6053Y2842D01*
X6073Y2869D01*
X6082Y2889D01*
X6095D01*
X6104Y2869D01*
X6124Y2842D01*
X6151Y2822D01*
X6182Y2809D01*
X6215Y2805D01*
X6249Y2809D01*
X6280Y2822D01*
X6307Y2842D01*
X6327Y2869D01*
X6336Y2889D01*
X6349D01*
X6358Y2869D01*
X6378Y2842D01*
X6405Y2822D01*
X6436Y2809D01*
X6469Y2805D01*
X6503Y2809D01*
X6534Y2822D01*
X6561Y2842D01*
X6581Y2869D01*
X6590Y2889D01*
X6603D01*
X6612Y2869D01*
X6632Y2842D01*
X6659Y2822D01*
X6690Y2809D01*
X6724Y2805D01*
X6757Y2809D01*
X6788Y2822D01*
X6815Y2842D01*
X6835Y2869D01*
X6844Y2889D01*
X6857D01*
X6866Y2869D01*
X6886Y2842D01*
X6913Y2822D01*
X6944Y2809D01*
X6978Y2805D01*
X7011Y2809D01*
X7042Y2822D01*
X7069Y2842D01*
X7089Y2869D01*
X7102Y2900D01*
X7107Y2934D01*
X7102Y2967D01*
X7089Y2998D01*
X7069Y3025D01*
X7042Y3046D01*
X7011Y3058D01*
X6978Y3063D01*
D02*
G37*
G36*
X2418Y3036D02*
Y2946D01*
X2508D01*
X2506Y2961D01*
X2496Y2986D01*
X2479Y3007D01*
X2458Y3024D01*
X2432Y3034D01*
X2418Y3036D01*
D02*
G37*
G36*
X2393D02*
X2379Y3034D01*
X2353Y3024D01*
X2332Y3007D01*
X2315Y2986D01*
X2305Y2961D01*
X2303Y2946D01*
X2393D01*
Y3036D01*
D02*
G37*
G36*
X2508Y2921D02*
X2418D01*
Y2831D01*
X2432Y2833D01*
X2458Y2843D01*
X2479Y2860D01*
X2496Y2882D01*
X2506Y2907D01*
X2508Y2921D01*
D02*
G37*
G36*
X2393D02*
X2303D01*
X2305Y2907D01*
X2315Y2882D01*
X2332Y2860D01*
X2353Y2843D01*
X2379Y2833D01*
X2393Y2831D01*
Y2921D01*
D02*
G37*
G36*
X963Y3008D02*
X713D01*
Y2758D01*
X963D01*
Y3008D01*
D02*
G37*
G36*
X1511Y1042D02*
X1482Y1038D01*
X1454Y1026D01*
X1430Y1008D01*
X1417Y990D01*
X1126D01*
X1122Y995D01*
X1099Y1014D01*
X1071Y1025D01*
X1041Y1029D01*
X1012Y1025D01*
X984Y1014D01*
X960Y995D01*
X942Y972D01*
X931Y944D01*
X927Y914D01*
X931Y885D01*
X942Y857D01*
X960Y833D01*
X984Y815D01*
X1012Y804D01*
X1041Y800D01*
X1071Y804D01*
X1099Y815D01*
X1122Y833D01*
X1126Y839D01*
X1440D01*
X1454Y828D01*
X1482Y817D01*
X1511Y813D01*
X1541Y817D01*
X1569Y828D01*
X1592Y846D01*
X1610Y870D01*
X1622Y897D01*
X1626Y927D01*
X1622Y957D01*
X1610Y984D01*
X1592Y1008D01*
X1569Y1026D01*
X1541Y1038D01*
X1511Y1042D01*
D02*
G37*
%LPD*%
D41*
X3175Y6121D02*
X3315Y5982D01*
Y4407D02*
Y5982D01*
X2896Y6121D02*
X3175D01*
X3137Y4229D02*
X3315Y4407D01*
X2743Y4229D02*
X3137D01*
X5093Y2311D02*
X7061D01*
X4946Y2164D02*
X5093Y2311D01*
X4946Y394D02*
Y2164D01*
X7061Y2311D02*
X7252Y2502D01*
Y3797D01*
X7201Y3848D02*
X7252Y3797D01*
X6007Y3848D02*
X7201D01*
X5944Y3785D02*
X6007Y3848D01*
X5944Y3581D02*
Y3785D01*
X2172Y394D02*
X2406D01*
X1994Y572D02*
X2172Y394D01*
X1994Y572D02*
Y3747D01*
X2654D01*
X2743Y3835D01*
Y4229D01*
X3315Y4026D02*
X4826D01*
X4928Y3924D01*
Y3581D02*
Y3924D01*
D42*
X1041Y914D02*
X1499D01*
X1511Y927D01*
D43*
X2216Y5163D02*
X2413Y5359D01*
X4267Y7201D02*
X4420Y7353D01*
Y7645D01*
X2591Y7201D02*
X4267D01*
X2413Y7023D02*
X2591Y7201D01*
X2413Y5359D02*
Y7023D01*
X1791Y5156D02*
X2210D01*
X1651Y5017D02*
X1791Y5156D01*
X1651Y4597D02*
Y5017D01*
X1537Y4483D02*
X1651Y4597D01*
X991Y4483D02*
X1537D01*
X1080Y1765D02*
X1816D01*
X1892Y6299D02*
X1989Y6203D01*
Y6038D02*
Y6203D01*
Y6038D02*
X1994Y6033D01*
X1232Y6299D02*
X1892D01*
D44*
X837Y3835D02*
D03*
X838Y2883D02*
D03*
X1994Y3747D02*
D03*
D45*
X837Y4089D02*
D03*
X838Y3137D02*
D03*
X1778Y7540D02*
D03*
X533D02*
D03*
X1994Y4508D02*
D03*
Y4254D02*
D03*
Y4001D02*
D03*
D46*
X1524Y7540D02*
D03*
X787D02*
D03*
D47*
X6978Y2934D02*
D03*
X6724D02*
D03*
X6469D02*
D03*
X6215D02*
D03*
X5962D02*
D03*
X5708D02*
D03*
X5453D02*
D03*
X5199D02*
D03*
X4946D02*
D03*
X4692D02*
D03*
X4438D02*
D03*
X4183D02*
D03*
X3929D02*
D03*
X3676D02*
D03*
X3422D02*
D03*
X3167D02*
D03*
X2914D02*
D03*
X2659D02*
D03*
X2406D02*
D03*
X6724Y394D02*
D03*
X6469D02*
D03*
X6215D02*
D03*
X5962D02*
D03*
X5708D02*
D03*
X5453D02*
D03*
X5199D02*
D03*
X4946D02*
D03*
X4692D02*
D03*
X4438D02*
D03*
X4183D02*
D03*
X3929D02*
D03*
X3676D02*
D03*
X3422D02*
D03*
X3167D02*
D03*
X2914D02*
D03*
X6978D02*
D03*
X2659D02*
D03*
D48*
X2406D02*
D03*
D49*
X4166Y7645D02*
D03*
X4420D02*
D03*
X4674D02*
D03*
X4928D02*
D03*
X5182D02*
D03*
X5436D02*
D03*
X5690D02*
D03*
X5944D02*
D03*
X6198D02*
D03*
X6452Y3581D02*
D03*
X6198D02*
D03*
X5944D02*
D03*
X5690D02*
D03*
X5436D02*
D03*
X5182D02*
D03*
X4928D02*
D03*
X4674D02*
D03*
X4420D02*
D03*
X4166D02*
D03*
X2896Y5613D02*
D03*
Y5867D02*
D03*
Y6121D02*
D03*
Y6375D02*
D03*
Y6629D02*
D03*
Y6883D02*
D03*
D50*
X7030Y7723D02*
D03*
X6780Y7223D02*
D03*
X7030Y6723D02*
D03*
X6780Y6223D02*
D03*
X7030Y5723D02*
D03*
X6780Y5223D02*
D03*
X7030Y4723D02*
D03*
Y3723D02*
D03*
Y2723D02*
D03*
Y1723D02*
D03*
X6780Y1223D02*
D03*
Y223D02*
D03*
X6530Y7723D02*
D03*
X6280Y7223D02*
D03*
X6530Y6723D02*
D03*
X6280Y6223D02*
D03*
X6530Y5723D02*
D03*
X6280Y5223D02*
D03*
X6530Y4723D02*
D03*
Y2723D02*
D03*
X6280Y1223D02*
D03*
X6530Y723D02*
D03*
X6280Y223D02*
D03*
X5780Y4223D02*
D03*
X6030Y2723D02*
D03*
X5780Y1223D02*
D03*
X6030Y723D02*
D03*
X5780Y223D02*
D03*
X5280Y7223D02*
D03*
X5530Y6723D02*
D03*
X5280Y6223D02*
D03*
X5530Y5723D02*
D03*
X5280Y5223D02*
D03*
X5530Y4723D02*
D03*
X5280Y4223D02*
D03*
X5530Y2723D02*
D03*
X5280Y1223D02*
D03*
X5530Y723D02*
D03*
X5280Y223D02*
D03*
X4780Y7223D02*
D03*
X5030Y6723D02*
D03*
X4780Y6223D02*
D03*
X5030Y5723D02*
D03*
X4780Y5223D02*
D03*
X5030Y4723D02*
D03*
X4780Y3223D02*
D03*
X5030Y2723D02*
D03*
X4780Y2223D02*
D03*
Y1223D02*
D03*
Y223D02*
D03*
X4530Y6723D02*
D03*
X4280Y6223D02*
D03*
X4530Y5723D02*
D03*
X4280Y5223D02*
D03*
Y4223D02*
D03*
Y3223D02*
D03*
X4530Y2723D02*
D03*
X4280Y2223D02*
D03*
Y1223D02*
D03*
X4530Y723D02*
D03*
X4280Y223D02*
D03*
X4030Y6723D02*
D03*
X3780Y6223D02*
D03*
X4030Y5723D02*
D03*
X3780Y5223D02*
D03*
X4030Y3723D02*
D03*
Y2723D02*
D03*
X3780Y2223D02*
D03*
Y1223D02*
D03*
Y223D02*
D03*
X3530Y7723D02*
D03*
Y6723D02*
D03*
X3280Y6223D02*
D03*
X3530Y5723D02*
D03*
Y3723D02*
D03*
X3280Y3223D02*
D03*
X3530Y2723D02*
D03*
X3280Y2223D02*
D03*
Y1223D02*
D03*
Y223D02*
D03*
X3030Y7723D02*
D03*
X2780Y5223D02*
D03*
X3030Y3723D02*
D03*
Y2723D02*
D03*
X2780Y2223D02*
D03*
Y1223D02*
D03*
X3030Y723D02*
D03*
X2780Y223D02*
D03*
X2530Y7723D02*
D03*
X2280Y7223D02*
D03*
Y3223D02*
D03*
X2530Y2723D02*
D03*
X2280Y2223D02*
D03*
Y1223D02*
D03*
X2530Y723D02*
D03*
X2030Y7723D02*
D03*
X1780Y7223D02*
D03*
X2030Y6723D02*
D03*
Y4723D02*
D03*
X1780Y4223D02*
D03*
Y3223D02*
D03*
Y2223D02*
D03*
Y1223D02*
D03*
X1280Y7223D02*
D03*
Y5223D02*
D03*
Y3223D02*
D03*
X1530Y723D02*
D03*
X780Y7223D02*
D03*
X1030Y2723D02*
D03*
X780Y2223D02*
D03*
Y1223D02*
D03*
X1030Y723D02*
D03*
X780Y223D02*
D03*
X530Y1723D02*
D03*
Y723D02*
D03*
X280Y223D02*
D03*
D51*
X2223Y5156D02*
D03*
X991Y4483D02*
D03*
X1041Y914D02*
D03*
X1511Y927D02*
D03*
X1080Y1765D02*
D03*
X1816D02*
D03*
X1232Y6299D02*
D03*
X2743Y4229D02*
D03*
X3315Y4026D02*
D03*
X1956Y4902D02*
D03*
X1994Y6033D02*
D03*
X1382Y5321D02*
D03*
M02*
