G04*
G04 #@! TF.GenerationSoftware,Altium Limited,Altium Designer,19.0.15 (446)*
G04*
G04 Layer_Color=255*
%FSLAX42Y42*%
%MOMM*%
G71*
G01*
G75*
%ADD15R,1.40X1.10*%
%ADD16R,1.52X1.65*%
%ADD17R,1.80X2.40*%
%ADD18R,1.20X1.20*%
%ADD19R,1.40X1.00*%
%ADD20R,1.00X1.40*%
%ADD21R,1.70X2.00*%
%ADD22R,3.50X1.60*%
%ADD23R,0.60X1.00*%
%ADD44R,1.50X1.50*%
%ADD45C,1.50*%
%ADD46R,1.50X1.50*%
%ADD47C,1.56*%
%ADD48R,1.56X1.56*%
%ADD49C,1.78*%
D15*
X1321Y3875D02*
D03*
Y4075D02*
D03*
X1295Y3084D02*
D03*
Y2884D02*
D03*
D16*
X1496Y4407D02*
D03*
X1166D02*
D03*
D17*
X699Y4825D02*
D03*
D18*
X699Y5105D02*
D03*
D19*
X1994Y5385D02*
D03*
Y5156D02*
D03*
Y5829D02*
D03*
Y5601D02*
D03*
D20*
X1308Y3581D02*
D03*
X1537D02*
D03*
X3353Y927D02*
D03*
X3124D02*
D03*
X3886D02*
D03*
X3658D02*
D03*
X2324Y4229D02*
D03*
X2553D02*
D03*
X2324Y4508D02*
D03*
X2553D02*
D03*
D21*
X699Y5428D02*
D03*
Y6028D02*
D03*
D22*
X1017Y6680D02*
D03*
X457D02*
D03*
X1626Y4902D02*
D03*
X1066D02*
D03*
D23*
X1287Y5774D02*
D03*
X1382D02*
D03*
X1477D02*
D03*
Y5504D02*
D03*
X1382D02*
D03*
X1287D02*
D03*
D44*
X837Y3835D02*
D03*
X838Y2883D02*
D03*
X1994Y3747D02*
D03*
D45*
X837Y4089D02*
D03*
X838Y3137D02*
D03*
X1778Y7540D02*
D03*
X533D02*
D03*
X1994Y4508D02*
D03*
Y4254D02*
D03*
Y4001D02*
D03*
D46*
X1524Y7540D02*
D03*
X787D02*
D03*
D47*
X6978Y2934D02*
D03*
X6724D02*
D03*
X6469D02*
D03*
X6215D02*
D03*
X5962D02*
D03*
X5708D02*
D03*
X5453D02*
D03*
X5199D02*
D03*
X4946D02*
D03*
X4692D02*
D03*
X4438D02*
D03*
X4183D02*
D03*
X3929D02*
D03*
X3676D02*
D03*
X3422D02*
D03*
X3167D02*
D03*
X2914D02*
D03*
X2659D02*
D03*
X2406D02*
D03*
X6724Y394D02*
D03*
X6469D02*
D03*
X6215D02*
D03*
X5962D02*
D03*
X5708D02*
D03*
X5453D02*
D03*
X5199D02*
D03*
X4946D02*
D03*
X4692D02*
D03*
X4438D02*
D03*
X4183D02*
D03*
X3929D02*
D03*
X3676D02*
D03*
X3422D02*
D03*
X3167D02*
D03*
X2914D02*
D03*
X6978D02*
D03*
X2659D02*
D03*
D48*
X2406D02*
D03*
D49*
X4166Y7645D02*
D03*
X4420D02*
D03*
X4674D02*
D03*
X4928D02*
D03*
X5182D02*
D03*
X5436D02*
D03*
X5690D02*
D03*
X5944D02*
D03*
X6198D02*
D03*
X6452Y3581D02*
D03*
X6198D02*
D03*
X5944D02*
D03*
X5690D02*
D03*
X5436D02*
D03*
X5182D02*
D03*
X4928D02*
D03*
X4674D02*
D03*
X4420D02*
D03*
X4166D02*
D03*
X2896Y5613D02*
D03*
Y5867D02*
D03*
Y6121D02*
D03*
Y6375D02*
D03*
Y6629D02*
D03*
Y6883D02*
D03*
M02*
