G04*
G04 #@! TF.GenerationSoftware,Altium Limited,Altium Designer,19.0.15 (446)*
G04*
G04 Layer_Color=8421504*
%FSLAX42Y42*%
%MOMM*%
G71*
G01*
G75*
%ADD15R,1.40X1.10*%
%ADD16R,1.52X1.65*%
%ADD17R,1.80X2.40*%
%ADD18R,1.20X1.20*%
%ADD19R,1.40X1.00*%
%ADD20R,1.00X1.40*%
%ADD21R,1.70X2.00*%
%ADD22R,3.50X1.60*%
%ADD23R,0.60X1.00*%
D15*
X1321Y3875D02*
D03*
Y4075D02*
D03*
X1295Y3084D02*
D03*
Y2884D02*
D03*
D16*
X1496Y4407D02*
D03*
X1166D02*
D03*
D17*
X699Y4825D02*
D03*
D18*
X699Y5105D02*
D03*
D19*
X1994Y5385D02*
D03*
Y5156D02*
D03*
Y5829D02*
D03*
Y5601D02*
D03*
D20*
X1308Y3581D02*
D03*
X1537D02*
D03*
X3353Y927D02*
D03*
X3124D02*
D03*
X3886D02*
D03*
X3658D02*
D03*
X2324Y4229D02*
D03*
X2553D02*
D03*
X2324Y4508D02*
D03*
X2553D02*
D03*
D21*
X699Y5428D02*
D03*
Y6028D02*
D03*
D22*
X1017Y6680D02*
D03*
X457D02*
D03*
X1626Y4902D02*
D03*
X1066D02*
D03*
D23*
X1287Y5774D02*
D03*
X1382D02*
D03*
X1477D02*
D03*
Y5504D02*
D03*
X1382D02*
D03*
X1287D02*
D03*
M02*
