G04*
G04 #@! TF.GenerationSoftware,Altium Limited,Altium Designer,19.0.15 (446)*
G04*
G04 Layer_Color=8388736*
%FSLAX42Y42*%
%MOMM*%
G71*
G01*
G75*
%ADD24R,1.60X1.30*%
%ADD25R,1.73X1.85*%
%ADD26R,2.00X2.60*%
%ADD27R,1.40X1.40*%
%ADD28R,1.60X1.20*%
%ADD29R,1.20X1.60*%
%ADD30R,1.90X2.20*%
%ADD31R,3.70X1.80*%
%ADD32R,0.80X1.20*%
%ADD33R,1.70X1.70*%
%ADD34C,1.70*%
%ADD35R,1.70X1.70*%
%ADD36C,1.76*%
%ADD37R,1.76X1.76*%
%ADD38C,1.98*%
%ADD39C,1.20*%
%ADD40C,1.47*%
D24*
X1321Y3875D02*
D03*
Y4075D02*
D03*
X1295Y3084D02*
D03*
Y2884D02*
D03*
D25*
X1496Y4407D02*
D03*
X1166D02*
D03*
D26*
X699Y4825D02*
D03*
D27*
X699Y5105D02*
D03*
D28*
X1994Y5385D02*
D03*
Y5156D02*
D03*
Y5829D02*
D03*
Y5601D02*
D03*
D29*
X1308Y3581D02*
D03*
X1537D02*
D03*
X3353Y927D02*
D03*
X3124D02*
D03*
X3886D02*
D03*
X3658D02*
D03*
X2324Y4229D02*
D03*
X2553D02*
D03*
X2324Y4508D02*
D03*
X2553D02*
D03*
D30*
X699Y5428D02*
D03*
Y6028D02*
D03*
D31*
X1017Y6680D02*
D03*
X457D02*
D03*
X1626Y4902D02*
D03*
X1066D02*
D03*
D32*
X1287Y5774D02*
D03*
X1382D02*
D03*
X1477D02*
D03*
Y5504D02*
D03*
X1382D02*
D03*
X1287D02*
D03*
D33*
X837Y3835D02*
D03*
X838Y2883D02*
D03*
X1994Y3747D02*
D03*
D34*
X837Y4089D02*
D03*
X838Y3137D02*
D03*
X1778Y7540D02*
D03*
X533D02*
D03*
X1994Y4508D02*
D03*
Y4254D02*
D03*
Y4001D02*
D03*
D35*
X1524Y7540D02*
D03*
X787D02*
D03*
D36*
X6978Y2934D02*
D03*
X6724D02*
D03*
X6469D02*
D03*
X6215D02*
D03*
X5962D02*
D03*
X5708D02*
D03*
X5453D02*
D03*
X5199D02*
D03*
X4946D02*
D03*
X4692D02*
D03*
X4438D02*
D03*
X4183D02*
D03*
X3929D02*
D03*
X3676D02*
D03*
X3422D02*
D03*
X3167D02*
D03*
X2914D02*
D03*
X2659D02*
D03*
X2406D02*
D03*
X6724Y394D02*
D03*
X6469D02*
D03*
X6215D02*
D03*
X5962D02*
D03*
X5708D02*
D03*
X5453D02*
D03*
X5199D02*
D03*
X4946D02*
D03*
X4692D02*
D03*
X4438D02*
D03*
X4183D02*
D03*
X3929D02*
D03*
X3676D02*
D03*
X3422D02*
D03*
X3167D02*
D03*
X2914D02*
D03*
X6978D02*
D03*
X2659D02*
D03*
D37*
X2406D02*
D03*
D38*
X4166Y7645D02*
D03*
X4420D02*
D03*
X4674D02*
D03*
X4928D02*
D03*
X5182D02*
D03*
X5436D02*
D03*
X5690D02*
D03*
X5944D02*
D03*
X6198D02*
D03*
X6452Y3581D02*
D03*
X6198D02*
D03*
X5944D02*
D03*
X5690D02*
D03*
X5436D02*
D03*
X5182D02*
D03*
X4928D02*
D03*
X4674D02*
D03*
X4420D02*
D03*
X4166D02*
D03*
X2896Y5613D02*
D03*
Y5867D02*
D03*
Y6121D02*
D03*
Y6375D02*
D03*
Y6629D02*
D03*
Y6883D02*
D03*
D39*
X7030Y7723D02*
D03*
X6780Y7223D02*
D03*
X7030Y6723D02*
D03*
X6780Y6223D02*
D03*
X7030Y5723D02*
D03*
X6780Y5223D02*
D03*
X7030Y4723D02*
D03*
Y3723D02*
D03*
Y2723D02*
D03*
Y1723D02*
D03*
X6780Y1223D02*
D03*
Y223D02*
D03*
X6530Y7723D02*
D03*
X6280Y7223D02*
D03*
X6530Y6723D02*
D03*
X6280Y6223D02*
D03*
X6530Y5723D02*
D03*
X6280Y5223D02*
D03*
X6530Y4723D02*
D03*
Y2723D02*
D03*
X6280Y1223D02*
D03*
X6530Y723D02*
D03*
X6280Y223D02*
D03*
X5780Y4223D02*
D03*
X6030Y2723D02*
D03*
X5780Y1223D02*
D03*
X6030Y723D02*
D03*
X5780Y223D02*
D03*
X5280Y7223D02*
D03*
X5530Y6723D02*
D03*
X5280Y6223D02*
D03*
X5530Y5723D02*
D03*
X5280Y5223D02*
D03*
X5530Y4723D02*
D03*
X5280Y4223D02*
D03*
X5530Y2723D02*
D03*
X5280Y1223D02*
D03*
X5530Y723D02*
D03*
X5280Y223D02*
D03*
X4780Y7223D02*
D03*
X5030Y6723D02*
D03*
X4780Y6223D02*
D03*
X5030Y5723D02*
D03*
X4780Y5223D02*
D03*
X5030Y4723D02*
D03*
X4780Y3223D02*
D03*
X5030Y2723D02*
D03*
X4780Y2223D02*
D03*
Y1223D02*
D03*
Y223D02*
D03*
X4530Y6723D02*
D03*
X4280Y6223D02*
D03*
X4530Y5723D02*
D03*
X4280Y5223D02*
D03*
Y4223D02*
D03*
Y3223D02*
D03*
X4530Y2723D02*
D03*
X4280Y2223D02*
D03*
Y1223D02*
D03*
X4530Y723D02*
D03*
X4280Y223D02*
D03*
X4030Y6723D02*
D03*
X3780Y6223D02*
D03*
X4030Y5723D02*
D03*
X3780Y5223D02*
D03*
X4030Y3723D02*
D03*
Y2723D02*
D03*
X3780Y2223D02*
D03*
Y1223D02*
D03*
Y223D02*
D03*
X3530Y7723D02*
D03*
Y6723D02*
D03*
X3280Y6223D02*
D03*
X3530Y5723D02*
D03*
Y3723D02*
D03*
X3280Y3223D02*
D03*
X3530Y2723D02*
D03*
X3280Y2223D02*
D03*
Y1223D02*
D03*
Y223D02*
D03*
X3030Y7723D02*
D03*
X2780Y5223D02*
D03*
X3030Y3723D02*
D03*
Y2723D02*
D03*
X2780Y2223D02*
D03*
Y1223D02*
D03*
X3030Y723D02*
D03*
X2780Y223D02*
D03*
X2530Y7723D02*
D03*
X2280Y7223D02*
D03*
Y3223D02*
D03*
X2530Y2723D02*
D03*
X2280Y2223D02*
D03*
Y1223D02*
D03*
X2530Y723D02*
D03*
X2030Y7723D02*
D03*
X1780Y7223D02*
D03*
X2030Y6723D02*
D03*
Y4723D02*
D03*
X1780Y4223D02*
D03*
Y3223D02*
D03*
Y2223D02*
D03*
Y1223D02*
D03*
X1280Y7223D02*
D03*
Y5223D02*
D03*
Y3223D02*
D03*
X1530Y723D02*
D03*
X780Y7223D02*
D03*
X1030Y2723D02*
D03*
X780Y2223D02*
D03*
Y1223D02*
D03*
X1030Y723D02*
D03*
X780Y223D02*
D03*
X530Y1723D02*
D03*
Y723D02*
D03*
X280Y223D02*
D03*
D40*
X2223Y5156D02*
D03*
X991Y4483D02*
D03*
X1041Y914D02*
D03*
X1511Y927D02*
D03*
X1080Y1765D02*
D03*
X1816D02*
D03*
X1232Y6299D02*
D03*
X2743Y4229D02*
D03*
X3315Y4026D02*
D03*
X1956Y4902D02*
D03*
X1994Y6033D02*
D03*
X1382Y5321D02*
D03*
M02*
