G04*
G04 #@! TF.GenerationSoftware,Altium Limited,Altium Designer,19.0.15 (446)*
G04*
G04 Layer_Color=65535*
%FSLAX42Y42*%
%MOMM*%
G71*
G01*
G75*
%ADD10C,0.25*%
%ADD11C,0.20*%
%ADD12C,0.10*%
%ADD13C,0.13*%
%ADD14C,0.25*%
D10*
X1214Y5504D02*
G03*
X1214Y5504I-12J0D01*
G01*
X4555Y5592D02*
X4534Y5613D01*
X4492D01*
X4470Y5592D01*
Y5508D01*
X4492Y5486D01*
X4534D01*
X4555Y5508D01*
Y5550D01*
X4513D01*
X4597Y5486D02*
Y5613D01*
X4661D01*
X4682Y5592D01*
Y5550D01*
X4661Y5529D01*
X4597D01*
X4809Y5592D02*
X4788Y5613D01*
X4745D01*
X4724Y5592D01*
Y5571D01*
X4745Y5550D01*
X4788D01*
X4809Y5529D01*
Y5508D01*
X4788Y5486D01*
X4745D01*
X4724Y5508D01*
X4851Y5550D02*
X4936D01*
X4978Y5486D02*
X5021D01*
X4999D01*
Y5613D01*
X4978Y5592D01*
X5169Y5613D02*
X5126Y5592D01*
X5084Y5550D01*
Y5508D01*
X5105Y5486D01*
X5148D01*
X5169Y5508D01*
Y5529D01*
X5148Y5550D01*
X5084D01*
X5274Y5486D02*
Y5613D01*
X5211Y5550D01*
X5296D01*
X5338Y5592D02*
X5359Y5613D01*
X5401D01*
X5423Y5592D01*
Y5571D01*
X5401Y5550D01*
X5423Y5529D01*
Y5508D01*
X5401Y5486D01*
X5359D01*
X5338Y5508D01*
Y5529D01*
X5359Y5550D01*
X5338Y5571D01*
Y5592D01*
X5359Y5550D02*
X5401D01*
X5465Y5486D02*
X5507D01*
X5486D01*
Y5613D01*
X5465Y5592D01*
D11*
X560Y4204D02*
X1116D01*
Y3721D02*
Y4204D01*
X560Y3721D02*
X1116D01*
X560D02*
Y4204D01*
X561Y3251D02*
X1118D01*
Y2769D02*
Y3251D01*
X561Y2769D02*
X1118D01*
X561D02*
Y3251D01*
X1892Y7260D02*
Y7817D01*
X1410Y7260D02*
X1892D01*
X1410D02*
Y7817D01*
X1892D01*
X419Y7263D02*
Y7819D01*
X902D01*
Y7263D02*
Y7819D01*
X419Y7263D02*
X902D01*
X683Y5000D02*
X714Y5000D01*
X649Y5025D02*
X699Y4975D01*
X749Y5025D01*
X649D02*
X749D01*
X669Y5015D02*
X728D01*
X649Y4965D02*
X749D01*
X799Y6093D02*
X1064D01*
X334D02*
X599D01*
X799Y5363D02*
X1064D01*
X334D02*
X599D01*
X334D02*
Y6093D01*
X1064Y5363D02*
Y6093D01*
X1232Y5684D02*
X1532D01*
X1232Y5594D02*
X1532D01*
Y5684D01*
X1232Y5594D02*
Y5684D01*
X1867Y3619D02*
X2121D01*
X1867D02*
Y4635D01*
X2121Y3619D02*
Y4635D01*
X1867D02*
X2121D01*
D12*
X1384Y3932D02*
Y4018D01*
X1257Y3932D02*
Y4018D01*
X1252Y4483D02*
X1410D01*
X1252Y4331D02*
X1410D01*
X813Y5194D02*
X813Y4674D01*
X584Y5194D02*
X813D01*
X584D02*
X584Y4674D01*
X813Y4674D01*
X1930Y5227D02*
Y5314D01*
X2057Y5227D02*
Y5314D01*
X1930Y5672D02*
Y5758D01*
X2057Y5672D02*
Y5758D01*
X1379Y3518D02*
X1466D01*
X1379Y3645D02*
X1466D01*
X1232Y2941D02*
Y3028D01*
X1359Y2941D02*
Y3028D01*
X3195Y991D02*
X3282D01*
X3195Y864D02*
X3282D01*
X3729Y991D02*
X3815D01*
X3729Y864D02*
X3815D01*
X2395Y4166D02*
X2482D01*
X2395Y4293D02*
X2482D01*
X2395Y4445D02*
X2482D01*
X2395Y4572D02*
X2482D01*
D13*
X1234Y3797D02*
Y4153D01*
Y3797D02*
X1405D01*
Y4153D01*
X1234D02*
X1405D01*
X1582Y4308D02*
Y4503D01*
X1079Y4308D02*
X1582D01*
X1079D02*
Y4503D01*
X1582D01*
X2080Y5093D02*
Y5448D01*
X1910D02*
X2080D01*
X1910Y5093D02*
Y5448D01*
Y5093D02*
X2080D01*
Y5537D02*
Y5893D01*
X1910D02*
X2080D01*
X1910Y5537D02*
Y5893D01*
Y5537D02*
X2080D01*
X1245Y3668D02*
X1600D01*
X1245Y3498D02*
Y3668D01*
Y3498D02*
X1600D01*
Y3668D01*
X1209Y3162D02*
X1379D01*
Y2807D02*
Y3162D01*
X1209Y2807D02*
X1379D01*
X1209D02*
Y3162D01*
X7107Y269D02*
Y3059D01*
X1667D02*
X7107D01*
X1667Y269D02*
Y3059D01*
Y269D02*
X7107D01*
X407Y6855D02*
X562Y7010D01*
X407Y6505D02*
X562Y6350D01*
X1067D01*
X562Y7010D02*
X1067D01*
Y6350D02*
Y6580D01*
Y6780D02*
Y7010D01*
X407Y6780D02*
Y6855D01*
Y6505D02*
Y6580D01*
X1016Y5077D02*
X1171Y5232D01*
X1016Y4727D02*
X1171Y4572D01*
X1676D01*
X1171Y5232D02*
X1676D01*
Y4572D02*
Y4802D01*
Y5002D02*
Y5232D01*
X1016Y5002D02*
Y5077D01*
Y4727D02*
Y4802D01*
X3061Y841D02*
X3416D01*
Y1011D01*
X3061D02*
X3416D01*
X3061Y841D02*
Y1011D01*
X3594Y841D02*
X3950D01*
Y1011D01*
X3594D02*
X3950D01*
X3594Y841D02*
Y1011D01*
X2261Y4315D02*
X2616D01*
X2261Y4145D02*
Y4315D01*
Y4145D02*
X2616D01*
Y4315D01*
X2261Y4595D02*
X2616D01*
X2261Y4425D02*
Y4595D01*
Y4425D02*
X2616D01*
Y4595D01*
X3048Y6375D02*
Y6426D01*
X3073D01*
X3082Y6418D01*
Y6401D01*
X3073Y6392D01*
X3048D01*
X3065D02*
X3082Y6375D01*
X3099Y6426D02*
X3133Y6375D01*
Y6426D02*
X3099Y6375D01*
X3183D02*
X3150D01*
X3183Y6409D01*
Y6418D01*
X3175Y6426D01*
X3158D01*
X3150Y6418D01*
X3048Y6680D02*
X3082D01*
X3065D01*
Y6629D01*
X3099Y6680D02*
X3133Y6629D01*
Y6680D02*
X3099Y6629D01*
X3183D02*
X3150D01*
X3183Y6663D01*
Y6672D01*
X3175Y6680D01*
X3158D01*
X3150Y6672D01*
X5944Y3759D02*
X5893D01*
Y3785D01*
X5901Y3793D01*
X5918D01*
X5927Y3785D01*
Y3759D01*
Y3776D02*
X5944Y3793D01*
X5901Y3844D02*
X5893Y3835D01*
Y3818D01*
X5901Y3810D01*
X5910D01*
X5918Y3818D01*
Y3835D01*
X5927Y3844D01*
X5935D01*
X5944Y3835D01*
Y3818D01*
X5935Y3810D01*
X5893Y3861D02*
Y3895D01*
Y3878D01*
X5944D01*
X4885Y3793D02*
X4877Y3785D01*
Y3768D01*
X4885Y3759D01*
X4894D01*
X4902Y3768D01*
Y3785D01*
X4911Y3793D01*
X4919D01*
X4928Y3785D01*
Y3768D01*
X4919Y3759D01*
X4885Y3844D02*
X4877Y3835D01*
Y3818D01*
X4885Y3810D01*
X4919D01*
X4928Y3818D01*
Y3835D01*
X4919Y3844D01*
X4877Y3861D02*
X4928D01*
Y3895D01*
X4631Y3793D02*
X4623Y3785D01*
Y3768D01*
X4631Y3759D01*
X4640D01*
X4648Y3768D01*
Y3785D01*
X4657Y3793D01*
X4665D01*
X4674Y3785D01*
Y3768D01*
X4665Y3759D01*
X4623Y3810D02*
X4674D01*
Y3835D01*
X4665Y3844D01*
X4631D01*
X4623Y3835D01*
Y3810D01*
X4674Y3861D02*
X4640D01*
X4623Y3878D01*
X4640Y3895D01*
X4674D01*
X4648D01*
Y3861D01*
X5690Y7341D02*
X5639D01*
Y7366D01*
X5647Y7374D01*
X5664D01*
X5673Y7366D01*
Y7341D01*
Y7358D02*
X5690Y7374D01*
X5639Y7391D02*
X5690Y7425D01*
X5639D02*
X5690Y7391D01*
Y7442D02*
Y7459D01*
Y7451D01*
X5639D01*
X5647Y7442D01*
X5893Y7341D02*
Y7374D01*
Y7358D01*
X5944D01*
X5893Y7391D02*
X5944Y7425D01*
X5893D02*
X5944Y7391D01*
Y7442D02*
Y7459D01*
Y7451D01*
X5893D01*
X5901Y7442D01*
X4403Y3759D02*
X4394Y3768D01*
Y3785D01*
X4403Y3793D01*
X4411D01*
X4420Y3785D01*
Y3776D01*
Y3785D01*
X4428Y3793D01*
X4437D01*
X4445Y3785D01*
Y3768D01*
X4437Y3759D01*
X4394Y3810D02*
X4428D01*
X4445Y3827D01*
X4428Y3844D01*
X4394D01*
X4403Y3861D02*
X4394Y3869D01*
Y3886D01*
X4403Y3895D01*
X4411D01*
X4420Y3886D01*
Y3878D01*
Y3886D01*
X4428Y3895D01*
X4437D01*
X4445Y3886D01*
Y3869D01*
X4437Y3861D01*
X3048Y6138D02*
X3056Y6147D01*
X3073D01*
X3082Y6138D01*
Y6130D01*
X3073Y6121D01*
X3065D01*
X3073D01*
X3082Y6113D01*
Y6104D01*
X3073Y6096D01*
X3056D01*
X3048Y6104D01*
X3099Y6147D02*
Y6113D01*
X3116Y6096D01*
X3133Y6113D01*
Y6147D01*
X3150Y6138D02*
X3158Y6147D01*
X3175D01*
X3183Y6138D01*
Y6130D01*
X3175Y6121D01*
X3166D01*
X3175D01*
X3183Y6113D01*
Y6104D01*
X3175Y6096D01*
X3158D01*
X3150Y6104D01*
X4631Y7341D02*
X4623Y7349D01*
Y7366D01*
X4631Y7374D01*
X4640D01*
X4648Y7366D01*
Y7358D01*
Y7366D01*
X4657Y7374D01*
X4665D01*
X4674Y7366D01*
Y7349D01*
X4665Y7341D01*
X4623Y7391D02*
X4657D01*
X4674Y7408D01*
X4657Y7425D01*
X4623D01*
X4631Y7442D02*
X4623Y7451D01*
Y7468D01*
X4631Y7476D01*
X4640D01*
X4648Y7468D01*
Y7459D01*
Y7468D01*
X4657Y7476D01*
X4665D01*
X4674Y7468D01*
Y7451D01*
X4665Y7442D01*
X4394Y7400D02*
Y7366D01*
X4420D01*
X4411Y7383D01*
Y7391D01*
X4420Y7400D01*
X4437D01*
X4445Y7391D01*
Y7374D01*
X4437Y7366D01*
X4394Y7417D02*
X4428D01*
X4445Y7434D01*
X4428Y7451D01*
X4394D01*
X4149Y3793D02*
X4140Y3785D01*
Y3768D01*
X4149Y3759D01*
X4183D01*
X4191Y3768D01*
Y3785D01*
X4183Y3793D01*
X4166D01*
Y3776D01*
X4191Y3810D02*
X4140D01*
X4191Y3844D01*
X4140D01*
Y3861D02*
X4191D01*
Y3886D01*
X4183Y3895D01*
X4149D01*
X4140Y3886D01*
Y3861D01*
X3082Y5630D02*
X3073Y5639D01*
X3056D01*
X3048Y5630D01*
Y5596D01*
X3056Y5588D01*
X3073D01*
X3082Y5596D01*
Y5613D01*
X3065D01*
X3099Y5588D02*
Y5639D01*
X3133Y5588D01*
Y5639D01*
X3150D02*
Y5588D01*
X3175D01*
X3183Y5596D01*
Y5630D01*
X3175Y5639D01*
X3150D01*
X4183Y7434D02*
X4191Y7442D01*
Y7459D01*
X4183Y7468D01*
X4149D01*
X4140Y7459D01*
Y7442D01*
X4149Y7434D01*
X4166D01*
Y7451D01*
X4140Y7417D02*
X4191D01*
X4140Y7383D01*
X4191D01*
Y7366D02*
X4140D01*
Y7341D01*
X4149Y7332D01*
X4183D01*
X4191Y7341D01*
Y7366D01*
D14*
X2780Y8012D02*
Y7885D01*
X2805Y7860D01*
X2856D01*
X2882Y7885D01*
Y8012D01*
X3034Y7860D02*
X2932D01*
X3034Y7962D01*
Y7987D01*
X3009Y8012D01*
X2958D01*
X2932Y7987D01*
X1664Y3315D02*
Y3188D01*
X1689Y3162D01*
X1740D01*
X1765Y3188D01*
Y3315D01*
X1816Y3162D02*
X1867D01*
X1841D01*
Y3315D01*
X1816Y3289D01*
X2278Y4399D02*
Y4552D01*
X2355D01*
X2380Y4526D01*
Y4475D01*
X2355Y4450D01*
X2278D01*
X2329D02*
X2380Y4399D01*
X2431Y4552D02*
X2532D01*
Y4526D01*
X2431Y4425D01*
Y4399D01*
X2281Y4679D02*
Y4831D01*
X2357D01*
X2382Y4806D01*
Y4755D01*
X2357Y4729D01*
X2281D01*
X2332D02*
X2382Y4679D01*
X2535Y4831D02*
X2484Y4806D01*
X2433Y4755D01*
Y4704D01*
X2459Y4679D01*
X2509D01*
X2535Y4704D01*
Y4729D01*
X2509Y4755D01*
X2433D01*
X3612Y1092D02*
Y1245D01*
X3688D01*
X3713Y1219D01*
Y1168D01*
X3688Y1143D01*
X3612D01*
X3663D02*
X3713Y1092D01*
X3866Y1245D02*
X3764D01*
Y1168D01*
X3815Y1194D01*
X3840D01*
X3866Y1168D01*
Y1118D01*
X3840Y1092D01*
X3790D01*
X3764Y1118D01*
X927Y3492D02*
Y3645D01*
X1003D01*
X1029Y3619D01*
Y3569D01*
X1003Y3543D01*
X927D01*
X978D02*
X1029Y3492D01*
X1156D02*
Y3645D01*
X1079Y3569D01*
X1181D01*
X3078Y1092D02*
Y1245D01*
X3155D01*
X3180Y1219D01*
Y1168D01*
X3155Y1143D01*
X3078D01*
X3129D02*
X3180Y1092D01*
X3231Y1219D02*
X3256Y1245D01*
X3307D01*
X3332Y1219D01*
Y1194D01*
X3307Y1168D01*
X3282D01*
X3307D01*
X3332Y1143D01*
Y1118D01*
X3307Y1092D01*
X3256D01*
X3231Y1118D01*
X1651Y6043D02*
X1803D01*
Y5966D01*
X1778Y5941D01*
X1727D01*
X1702Y5966D01*
Y6043D01*
Y5992D02*
X1651Y5941D01*
Y5789D02*
Y5890D01*
X1753Y5789D01*
X1778D01*
X1803Y5814D01*
Y5865D01*
X1778Y5890D01*
X1638Y5446D02*
X1791D01*
Y5370D01*
X1765Y5344D01*
X1714D01*
X1689Y5370D01*
Y5446D01*
Y5395D02*
X1638Y5344D01*
Y5293D02*
Y5243D01*
Y5268D01*
X1791D01*
X1765Y5293D01*
X1882Y4722D02*
Y4874D01*
X1958D01*
X1984Y4849D01*
Y4798D01*
X1958Y4773D01*
X1882D01*
X2034Y4722D02*
X2085D01*
X2060D01*
Y4874D01*
X2034Y4849D01*
X348Y6365D02*
Y6213D01*
X450D01*
X500D02*
X551D01*
X526D01*
Y6365D01*
X500Y6340D01*
X1201Y6080D02*
X1252D01*
X1227D01*
Y5928D01*
X1201D01*
X1252D01*
X1430Y6055D02*
X1405Y6080D01*
X1354D01*
X1328Y6055D01*
Y5953D01*
X1354Y5928D01*
X1405D01*
X1430Y5953D01*
X1481Y5928D02*
X1532D01*
X1506D01*
Y6080D01*
X1481Y6055D01*
X457Y4862D02*
X305D01*
Y4785D01*
X330Y4760D01*
X432D01*
X457Y4785D01*
Y4862D01*
Y4709D02*
Y4658D01*
Y4684D01*
X305D01*
Y4709D01*
Y4658D01*
X457Y4506D02*
Y4557D01*
X432Y4582D01*
X330D01*
X305Y4557D01*
Y4506D01*
X330Y4481D01*
X432D01*
X457Y4506D01*
X305Y4430D02*
Y4379D01*
Y4404D01*
X457D01*
X432Y4430D01*
X1331Y3373D02*
X1306Y3398D01*
X1255D01*
X1229Y3373D01*
Y3272D01*
X1255Y3246D01*
X1306D01*
X1331Y3272D01*
X1382Y3348D02*
X1483Y3246D01*
X1432Y3297D01*
X1483Y3348D01*
X1382Y3246D01*
X1534Y3373D02*
X1559Y3398D01*
X1610D01*
X1636Y3373D01*
Y3348D01*
X1610Y3322D01*
X1585D01*
X1610D01*
X1636Y3297D01*
Y3272D01*
X1610Y3246D01*
X1559D01*
X1534Y3272D01*
X1549Y3962D02*
X1524Y3988D01*
X1473D01*
X1448Y3962D01*
Y3861D01*
X1473Y3835D01*
X1524D01*
X1549Y3861D01*
X1600Y3937D02*
X1702Y3835D01*
X1651Y3886D01*
X1702Y3937D01*
X1600Y3835D01*
X1854D02*
X1753D01*
X1854Y3937D01*
Y3962D01*
X1829Y3988D01*
X1778D01*
X1753Y3962D01*
X1598Y4229D02*
X1572Y4254D01*
X1521D01*
X1496Y4229D01*
Y4127D01*
X1521Y4102D01*
X1572D01*
X1598Y4127D01*
X1648Y4204D02*
X1750Y4102D01*
X1699Y4153D01*
X1750Y4204D01*
X1648Y4102D01*
X1801D02*
X1852D01*
X1826D01*
Y4254D01*
X1801Y4229D01*
X380Y2809D02*
X228D01*
Y2885D01*
X253Y2911D01*
X304D01*
X329Y2885D01*
Y2809D01*
Y2860D02*
X380Y2911D01*
X253Y3063D02*
X228Y3038D01*
Y2987D01*
X253Y2961D01*
X278D01*
X304Y2987D01*
Y3038D01*
X329Y3063D01*
X355D01*
X380Y3038D01*
Y2987D01*
X355Y2961D01*
X228Y3114D02*
Y3215D01*
Y3164D01*
X380D01*
X228Y3760D02*
X380D01*
Y3836D01*
X355Y3862D01*
X329D01*
X304Y3836D01*
Y3760D01*
Y3836D01*
X278Y3862D01*
X253D01*
X228Y3836D01*
Y3760D01*
Y3912D02*
Y4014D01*
Y3963D01*
X380D01*
Y4065D02*
X228D01*
X380Y4166D01*
X228D01*
X1290Y7370D02*
X1138D01*
Y7446D01*
X1163Y7472D01*
X1214D01*
X1239Y7446D01*
Y7370D01*
X1138Y7522D02*
X1290D01*
X1239Y7573D01*
X1290Y7624D01*
X1138D01*
X1290Y7675D02*
X1138D01*
Y7751D01*
X1163Y7776D01*
X1214D01*
X1239Y7751D01*
Y7675D01*
Y7725D02*
X1290Y7776D01*
X996Y5443D02*
X970Y5468D01*
X919D01*
X894Y5443D01*
Y5341D01*
X919Y5316D01*
X970D01*
X996Y5341D01*
X1046Y5443D02*
X1072Y5468D01*
X1123D01*
X1148Y5443D01*
Y5417D01*
X1123Y5392D01*
X1097D01*
X1123D01*
X1148Y5366D01*
Y5341D01*
X1123Y5316D01*
X1072D01*
X1046Y5341D01*
X389Y7219D02*
X363Y7244D01*
X312D01*
X287Y7219D01*
Y7117D01*
X312Y7092D01*
X363D01*
X389Y7117D01*
X541Y7092D02*
X439D01*
X541Y7193D01*
Y7219D01*
X516Y7244D01*
X465D01*
X439Y7219D01*
X88Y7340D02*
X240D01*
Y7416D01*
X215Y7442D01*
X189D01*
X164Y7416D01*
Y7340D01*
Y7416D01*
X138Y7442D01*
X113D01*
X88Y7416D01*
Y7340D01*
X240Y7492D02*
X138D01*
X88Y7543D01*
X138Y7594D01*
X240D01*
X164D01*
Y7492D01*
X88Y7645D02*
Y7746D01*
Y7695D01*
X240D01*
M02*
